<svg width="19" height="19" viewBox="0 0 19 19" fill="none" xmlns="http://www.w3.org/2000/svg">
<g id="24 / basic / eye-no">
<path id="icon" fill-rule="evenodd" clip-rule="evenodd" d="M2.14307 1.02356L1.02349 2.14315L4.24147 5.36113C3.94171 5.60957 3.64504 5.87637 3.35164 6.1601C2.69518 6.79493 2.10128 7.47268 1.57847 8.15072C1.26299 8.55987 1.039 8.88172 0.916363 9.07347L0.643555 9.50002L0.916363 9.92657C1.039 10.1183 1.26299 10.4402 1.57847 10.8493C2.10128 11.5274 2.69518 12.2051 3.35164 12.8399C5.27588 14.7008 7.34065 15.8334 9.49996 15.8334C10.8623 15.8334 12.1871 15.3825 13.4627 14.5823L16.8568 17.9765L17.9764 16.8569L2.14307 1.02356ZM12.3061 13.4258L11.1086 12.2283C10.6371 12.5068 10.0872 12.6667 9.49996 12.6667C7.75106 12.6667 6.3333 11.2489 6.3333 9.50002C6.3333 8.91276 6.49315 8.36283 6.77173 7.89139L5.36723 6.48689C5.06054 6.73421 4.75532 7.00526 4.45232 7.29828C3.85525 7.87568 3.31101 8.49675 2.83234 9.11755C2.72896 9.25162 2.63343 9.37955 2.54609 9.50002C2.63343 9.62049 2.72896 9.74842 2.83234 9.88249C3.31101 10.5033 3.85525 11.1244 4.45232 11.7018C6.10964 13.3045 7.83344 14.25 9.49996 14.25C10.4248 14.25 11.3672 13.9588 12.3061 13.4258ZM7.97025 9.08991C7.93528 9.22071 7.91663 9.35819 7.91663 9.50002C7.91663 10.3745 8.62551 11.0834 9.49996 11.0834C9.64179 11.0834 9.77927 11.0647 9.91007 11.0297L7.97025 9.08991ZM15.9109 12.5804L14.7913 11.4608C15.2934 10.9532 15.7549 10.4178 16.1676 9.88249C16.271 9.74842 16.3665 9.62049 16.4538 9.50002C16.3665 9.37955 16.271 9.25162 16.1676 9.11755C15.6889 8.49675 15.1447 7.87568 14.5476 7.29828C12.8903 5.69557 11.1665 4.75002 9.49998 4.75002C9.08649 4.75002 8.66947 4.80823 8.25082 4.92024L6.99843 3.66784C7.81578 3.34194 8.65056 3.16669 9.49998 3.16669C11.6593 3.16669 13.7241 4.29926 15.6483 6.1601C16.3048 6.79493 16.8986 7.47268 17.4215 8.15072C17.7369 8.55987 17.9609 8.88172 18.0836 9.07347L18.3564 9.50002L18.0836 9.92657C17.9609 10.1183 17.7369 10.4402 17.4215 10.8493C16.9693 11.4357 16.4639 12.0219 15.9109 12.5804Z" fill="#A0A9B0"/>
</g>
</svg>
