<svg width="16" height="20" viewBox="0 0 16 20" fill="none" xmlns="http://www.w3.org/2000/svg">
<path fill-rule="evenodd" clip-rule="evenodd" d="M3.41699 5.41665V8.16665H2.50033C1.521 8.16665 0.666992 8.87832 0.666992 9.8472V17.4861C0.666992 18.455 1.521 19.1666 2.50033 19.1666H13.5003C14.4796 19.1666 15.3337 18.455 15.3337 17.4861V9.8472C15.3337 8.87832 14.4796 8.16665 13.5003 8.16665H12.5837V5.41665C12.5837 2.88534 10.5316 0.833313 8.00033 0.833313C5.46902 0.833313 3.41699 2.88534 3.41699 5.41665ZM10.7503 5.41665V8.16665H5.25033V5.41665C5.25033 3.89786 6.48154 2.66665 8.00033 2.66665C9.51911 2.66665 10.7503 3.89786 10.7503 5.41665ZM2.50033 17.3333V9.99998H13.5003V17.3333H2.50033ZM8.91699 13.6666C8.91699 14.1729 8.50659 14.5833 8.00033 14.5833C7.49406 14.5833 7.08366 14.1729 7.08366 13.6666C7.08366 13.1604 7.49406 12.75 8.00033 12.75C8.50659 12.75 8.91699 13.1604 8.91699 13.6666Z" fill="#CACBD4"/>
</svg>
