<svg width="30" height="30" viewBox="0 0 30 30" fill="none" xmlns="http://www.w3.org/2000/svg">
<g clip-path="url(#clip0_916_281)">
<path d="M11.6254 25.5821L9.07139 28.1348C8.26692 28.2763 7.3133 28.5396 6.48227 28.101C5.40272 27.5314 4.53011 26.1925 4.46021 26.1332C4.49763 26.0891 4.53747 26.0469 4.57912 26.0052L7.00997 23.5762C7.00997 23.5762 8.47464 23.7125 9.56511 24.3007C10.4133 24.7582 10.7966 25.7276 11.6254 25.5821Z" fill="#F9F8F9"/>
<path d="M16.356 20.8545L13.8014 23.4073C12.9705 23.5534 11.3768 23.789 10.5271 23.3298C9.4398 22.7421 9.18604 21.4014 9.18604 21.4014L11.74 18.8486C11.74 18.8486 13.2385 19.0138 14.3591 19.6071C15.1928 20.0485 15.548 20.9964 16.356 20.8545Z" fill="#F9F8F9"/>
<path d="M21.0863 16.1265L18.5323 18.6793C17.7628 18.8146 16.253 19.1127 15.4483 18.7022C14.2722 18.1021 13.9163 16.674 13.9163 16.674L16.4709 14.1206C16.4709 14.1206 17.8823 14.2112 18.924 14.7893C19.7942 15.2722 20.2241 16.2779 21.0863 16.1265Z" fill="#F9F8F9"/>
<path d="M26.0975 8.23145C26.0975 8.23748 26.0969 8.24291 26.0969 8.24895C26.0148 9.88903 25.4214 11.508 24.3179 12.845C23.273 13.142 21.6688 13.7727 20.7956 13.6747C19.2391 13.5 18.6911 12.3245 18.415 12.1768L20.4614 10.1323C20.7747 10.1653 21.7632 9.60478 23.2314 9.0941C24.0491 8.80967 25.0158 8.95702 26.0975 8.23145Z" fill="#F9F8F9"/>
<path d="M18.5243 4.68894C17.7776 4.62496 17.0122 4.82355 16.3802 5.28352C16.2691 4.54117 14.9723 2.98083 14.9723 2.98083C14.9723 2.98083 14.7268 1.46896 14.4087 0.997094C15.5677 0.348184 16.8576 0.0161829 18.1506 0.000488281C18.2972 0.385428 19.332 2.34828 19.332 2.34828C19.332 2.34828 18.7927 3.94387 18.5243 4.68894Z" fill="#F9F8F9"/>
<path d="M9.07145 28.135L7.89073 29.3151C6.97622 30.2284 5.49369 30.2284 4.57918 29.3151C3.70632 28.4428 3.66648 27.0526 4.46026 26.1333C4.58401 26.2383 7.2219 28.4603 9.07145 28.135Z" fill="#DC4955"/>
<path d="M13.8015 23.4073L11.6254 25.5822C9.73121 25.9148 7.01001 23.5763 7.01001 23.5763L9.18612 21.4014C9.18612 21.4014 11.9073 23.7405 13.8015 23.4073Z" fill="#DC4955"/>
<path d="M18.5324 18.6796L16.3563 20.8545C14.462 21.1871 11.7402 18.8486 11.7402 18.8486L13.9163 16.6743C13.9163 16.6743 16.6381 19.0128 18.5324 18.6796Z" fill="#DC4955"/>
<path d="M25.0781 3.958C25.0781 3.958 24.4199 5.4945 23.4567 6.35288C22.8394 6.90297 22.097 6.81882 21.3223 7.04259C21.1846 6.51622 20.9094 6.01822 20.4971 5.60593C20.4029 5.51177 20.3045 5.42484 20.2019 5.34516C20.7066 4.88386 20.5184 4.08477 20.8337 3.29847C21.2947 2.14926 22.1456 1.02734 22.1456 1.02734C22.7414 1.36598 23.3016 1.78974 23.8086 2.29679C24.3157 2.80385 24.7388 3.36342 25.0781 3.958Z" fill="#F9F8F9"/>
<path d="M16.3802 5.2835C16.2486 5.37948 16.1225 5.48693 16.0036 5.60584L15.1283 6.48051C14.2138 7.39442 12.7313 7.39442 11.8167 6.48051C10.9022 5.56661 10.9022 4.08468 11.8167 3.17137L12.692 2.2967C13.2075 1.7812 13.7774 1.35261 14.3834 1.01095C14.3919 1.00612 14.4003 1.0013 14.4088 0.99707C15.0257 1.91218 16.1509 3.75086 16.3802 5.2835Z" fill="#DC4955"/>
<path d="M22.1458 1.02738C22.1458 1.02738 21.4443 4.20976 20.202 5.3452C19.7065 4.95948 19.1215 4.74036 18.5245 4.68905C19.1608 2.92281 18.4044 0.666409 18.1509 0.000596536H18.1575C19.535 -0.0163053 20.9155 0.325957 22.1458 1.02738Z" fill="#DC4955"/>
<path d="M26.0976 8.23176C23.074 10.26 20.9492 10.1839 20.4614 10.1326L20.497 10.097C21.324 9.27062 21.5993 8.09896 21.3222 7.0426C23.3058 6.46974 25.078 3.95801 25.078 3.95801C25.829 5.27273 26.1688 6.76009 26.0976 8.23176Z" fill="#DC4955"/>
<path d="M24.3182 12.8455C24.1595 13.0386 23.9893 13.2258 23.8088 13.4063L21.087 16.1268H21.0864C19.1921 16.4595 16.4709 14.121 16.4709 14.121L18.4153 12.1772C18.8463 12.4078 21.4105 13.6719 24.3182 12.8455Z" fill="#DC4955"/>
<path d="M7.99088 24.312L5.44353 26.8696C4.88698 26.4929 4.50548 26.1718 4.46021 26.1332C4.49763 26.0891 4.53747 26.0469 4.57912 26.0052L7.00997 23.5762C7.00997 23.5762 7.40113 23.9124 7.99088 24.312Z" fill="#EFEDEF"/>
<path d="M12.7155 19.5808L12.5936 19.7028L10.1615 22.1336C9.57538 21.7358 9.18604 21.4014 9.18604 21.4014L11.74 18.8486C11.74 18.8486 12.1294 19.183 12.7155 19.5808Z" fill="#EFEDEF"/>
<path d="M17.4463 14.8533L14.8917 17.4067C14.305 17.0089 13.9163 16.6745 13.9163 16.6745L16.4709 14.1211C16.4709 14.1211 16.8596 14.4555 17.4463 14.8533Z" fill="#EFEDEF"/>
<path d="M22.058 10.021C21.8666 10.3578 21.63 10.6711 21.3499 10.9512L19.6193 12.68C18.9988 12.4754 18.5696 12.2599 18.415 12.1772L20.4614 10.1327C20.6817 10.1556 21.2364 10.184 22.058 10.021Z" fill="#EFEDEF"/>
<path d="M18.761 3.49919C18.735 3.89155 18.6656 4.28331 18.537 4.65334C18.5328 4.66542 18.5286 4.67689 18.5243 4.68896C17.7776 4.62497 17.0122 4.82357 16.3802 5.28354C16.3784 5.27147 16.3766 5.26 16.3742 5.24793C16.3138 4.86401 16.1979 4.46199 16.0488 4.05997C16.7146 3.67304 17.468 3.47021 18.2509 3.47021C18.3758 3.47021 18.5026 3.47565 18.6276 3.48591C18.6722 3.48953 18.7169 3.49436 18.761 3.49919Z" fill="#EFEDEF"/>
<path d="M3.98892 28.3227C3.7704 27.5802 3.92735 26.7508 4.46036 26.1333C4.50563 26.1719 4.88713 26.4931 5.44369 26.8697L5.31028 27.0037L3.98892 28.3227Z" fill="#D82F3C"/>
<path d="M10.1616 22.1336L10.0397 22.2555L9.70948 22.5869L8.44244 23.8588L7.99092 24.3121C7.40117 23.9125 7.01001 23.5763 7.01001 23.5763L9.18612 21.4014C9.18612 21.4014 9.57547 21.7358 10.1616 22.1336Z" fill="#D82F3C"/>
<path d="M14.8918 17.4065L14.4693 17.8291L13.157 19.1396L12.7157 19.5808C12.1296 19.183 11.7402 18.8486 11.7402 18.8486L13.9163 16.6743C13.9163 16.6743 14.3051 17.0087 14.8918 17.4065Z" fill="#D82F3C"/>
<path d="M22.4299 6.53004C22.0756 6.75157 21.7025 6.93267 21.3223 7.04253C21.1846 6.51616 20.9094 6.01816 20.4971 5.60587C20.4029 5.5117 20.3045 5.42478 20.2019 5.3451C20.214 5.33423 20.2254 5.32337 20.2369 5.3119C20.4904 5.07044 20.721 4.74508 20.9269 4.37988C20.9317 4.3835 20.9371 4.38773 20.942 4.39135C21.0838 4.50121 21.2208 4.62255 21.3506 4.75233C21.8492 5.25093 22.2205 5.86181 22.4299 6.53004Z" fill="#EFEDEF"/>
<path d="M16.3804 5.28363C16.2488 5.37961 16.1227 5.48706 16.0037 5.60597L15.1285 6.48064C14.5538 7.0547 13.7552 7.26839 13.0139 7.1205L15.1502 4.75243C15.3108 4.59126 15.4858 4.44216 15.6699 4.30755C15.7303 4.26348 15.7919 4.22063 15.8546 4.18018C15.9186 4.13853 15.9832 4.09809 16.049 4.06006C16.1981 4.46208 16.314 4.8641 16.3744 5.24802C16.3768 5.26009 16.3786 5.27156 16.3804 5.28363Z" fill="#D82F3C"/>
<path d="M20.9269 4.38022C20.7211 4.74542 20.4905 5.07078 20.2369 5.31224C20.2255 5.3237 20.214 5.33457 20.2019 5.34544C19.7063 4.95971 19.1214 4.74059 18.5244 4.68928C18.5286 4.67721 18.5329 4.66574 18.5371 4.65367C18.6657 4.28364 18.7351 3.89188 18.761 3.49951C18.8184 3.50615 18.8751 3.514 18.9313 3.52305C19.5385 3.61782 20.115 3.83755 20.6281 4.16895C20.7301 4.23474 20.8303 4.30537 20.9269 4.38022Z" fill="#D82F3C"/>
<path d="M22.3375 9.43075C22.2591 9.63357 22.1661 9.83096 22.058 10.0211C21.2365 10.1841 20.6818 10.1557 20.4614 10.1328L20.497 10.0972C21.324 9.27079 21.5993 8.09913 21.3222 7.04276C21.7025 6.9329 22.0756 6.75181 22.4299 6.53027C22.4522 6.59848 22.4721 6.6673 22.4903 6.73672C22.4963 6.76026 22.5023 6.7838 22.5078 6.80734C22.7239 7.68865 22.6556 8.60558 22.3375 9.43075Z" fill="#D82F3C"/>
<path d="M19.6195 12.6801L19.2688 13.0308L19.264 13.0356L17.9142 14.3847L17.4464 14.8532C16.8597 14.4554 16.4709 14.121 16.4709 14.121L18.4153 12.1772C18.5698 12.2599 18.999 12.4754 19.6195 12.6801Z" fill="#D82F3C"/>
</g>
<defs>
<clipPath id="clip0_916_281">
<rect width="30" height="30" fill="white"/>
</clipPath>
</defs>
</svg>
