<svg width="34" height="34" viewBox="0 0 34 34" fill="none" xmlns="http://www.w3.org/2000/svg">
<path d="M27.5407 14.41C27.4832 14.41 27.4251 14.4051 27.3666 14.3948L25.2658 14.0243C24.724 13.9288 24.3622 13.4121 24.4577 12.8703C24.5532 12.3284 25.0703 11.9665 25.6117 12.0622L27.7125 12.4327C28.2543 12.5282 28.6161 13.0449 28.5206 13.5867C28.4354 14.0699 28.0149 14.41 27.5407 14.41Z" fill="#FFEB00"/>
<path d="M24.208 8.48119C23.8637 8.48119 23.5289 8.30254 23.3444 7.98297C23.0692 7.50652 23.2325 6.89725 23.709 6.62217L25.7848 5.42368C26.2613 5.1486 26.8706 5.31178 27.1456 5.78829C27.4208 6.26473 27.2575 6.874 26.781 7.14909L24.7052 8.34757C24.5483 8.43816 24.377 8.48119 24.208 8.48119Z" fill="#FFEB00"/>
<path d="M19.8353 4.47581C19.7221 4.47581 19.6071 4.45642 19.4947 4.41544C18.9776 4.22729 18.7111 3.65561 18.8992 3.13859L19.8028 0.655812C19.991 0.138788 20.5627 -0.127925 21.0797 0.0604213C21.5967 0.248569 21.8633 0.82025 21.6751 1.33727L20.7715 3.82005C20.6243 4.22457 20.2422 4.47581 19.8353 4.47581Z" fill="#FFEB00"/>
<path d="M6.32451 14.41C5.85012 14.41 5.42986 14.0699 5.34465 13.5867C5.24909 13.0448 5.6109 12.5282 6.1527 12.4326L8.2534 12.0622C8.79513 11.9667 9.31189 12.3283 9.40746 12.8702C9.50303 13.4121 9.14121 13.9287 8.59941 14.0243L6.49871 14.3947C6.4402 14.405 6.38196 14.41 6.32451 14.41Z" fill="#FFF9BF"/>
<path d="M9.65745 8.48124C9.48843 8.48124 9.31715 8.4382 9.16028 8.34762L7.08442 7.14913C6.60797 6.87405 6.44473 6.26478 6.71981 5.78833C6.99489 5.31189 7.6041 5.14851 8.08061 5.42373L10.1565 6.62221C10.6329 6.89729 10.7962 7.50656 10.5211 7.98301C10.3366 8.30259 10.0017 8.48124 9.65745 8.48124Z" fill="#FFF9BF"/>
<path d="M14.03 4.47578C13.6231 4.47578 13.2411 4.22461 13.0938 3.82002L12.1902 1.33725C12.0021 0.820224 12.2686 0.248542 12.7856 0.0603948C13.3025 -0.127886 13.8743 0.138762 14.0625 0.655786L14.9661 3.13856C15.1542 3.65559 14.8877 4.22727 14.3707 4.41542C14.2582 4.45639 14.1432 4.47578 14.03 4.47578Z" fill="#FFF9BF"/>
<path d="M16.9044 17.5029C16.9043 17.5043 16.9042 17.5055 16.904 17.5068C16.904 24.7862 11.0029 30.6873 3.7236 30.6873H3.12769C6.94951 34.5091 11.072 33.9785 16.9655 33.9785C21.602 33.9308 23.2664 34.102 25.289 33.6396C27.3635 33.1613 29.2139 32.1204 30.675 30.6873H30.0888C22.8073 30.6873 16.9044 24.7845 16.9044 17.5029Z" fill="#EC806B"/>
<path d="M16.9656 18.8242V33.9785C16.985 33.9799 17.0049 33.9813 17.0232 33.983C21.6597 33.9353 23.2664 34.1543 25.2891 33.6919C27.3635 33.2136 29.2139 32.1728 30.675 30.7396H30.0889C23.2355 30.7396 17.6042 25.5103 16.9656 18.8242Z" fill="#D6555E"/>
<path d="M21.9792 13.9023C21.6051 11.2933 18.6637 8.23791 17.438 7.06374C17.1428 6.78102 16.6764 6.78673 16.3888 7.07722C15.1577 8.32105 12.1271 11.5889 11.8234 13.9024C11.3797 17.2827 14.2031 19.601 16.9298 19.601C19.6565 19.601 22.4534 17.2099 21.9792 13.9023Z" fill="#FFAF00"/>
<path d="M17.438 7.0635C17.2889 6.92064 17.096 6.85171 16.9045 6.85563V19.6004C16.9129 19.6005 16.9213 19.6007 16.9297 19.6007C19.6564 19.6007 22.4533 17.2097 21.9792 13.9021C21.6051 11.293 18.6637 8.23766 17.438 7.0635Z" fill="#FF6C6C"/>
<path d="M16.904 23.9631V17.5068C16.4269 22.7862 11.9073 22.6148 8.74524 22.6148C6.30759 22.6149 2.98047 22.6149 1.16947 22.6149C0.455079 22.6149 -0.0914265 23.25 0.0127742 23.9568C0.468096 27.0457 1.62021 29.1952 3.1277 30.6873H10.1799C13.8935 30.6873 16.904 27.6768 16.904 23.9631Z" fill="#8C2A4D"/>
<path d="M33.9923 23.9101C34.0722 23.2189 33.5251 22.6145 32.8293 22.6145H22.0931C19.2885 22.6201 16.8909 20.3346 16.9053 17.4951C16.9051 17.4976 16.9047 17.5 16.9045 17.5025V23.9627C16.9045 27.6764 19.9151 30.6869 23.6288 30.6869H30.6751C32.4773 28.9193 33.687 26.5545 33.9923 23.9101Z" fill="#631646"/>
<path d="M19.6806 16.4833C19.4986 15.2135 18.205 13.7505 17.4495 12.9907C17.1528 12.6923 16.6686 12.696 16.3783 13.0007C15.6146 13.8023 14.2733 15.3515 14.1247 16.4833C13.8819 18.3326 15.4266 19.6008 16.9183 19.6008C18.41 19.6008 19.9401 18.2928 19.6806 16.4833Z" fill="#FFEB00"/>
<path d="M17.4496 12.9909C17.2994 12.8399 17.1013 12.7666 16.9045 12.7701V19.6006C16.9091 19.6006 16.9137 19.601 16.9183 19.601C18.41 19.601 19.9401 18.293 19.6807 16.4834C19.4987 15.2137 18.2051 13.7507 17.4496 12.9909Z" fill="#FFD400"/>
</svg>
