<svg width="51" height="52" viewBox="0 0 51 52" fill="none" xmlns="http://www.w3.org/2000/svg">
<g clip-path="url(#clip0_978_308)">
<path d="M51 26C51 38.9777 41.6746 49.7341 29.4844 51.6841V33.5156H35.4261L36.5566 26H29.4844V21.123C29.4844 19.0663 30.4725 17.0625 33.6401 17.0625H36.8555V10.6641C36.8555 10.6641 33.9369 10.1562 31.1469 10.1562C25.3227 10.1562 21.5156 13.7556 21.5156 20.2719V26H15.041V33.5156H21.5156V51.6841C9.32543 49.7341 0 38.9777 0 26C0 11.6411 11.4172 0 25.5 0C39.5828 0 51 11.6411 51 26Z" fill="#1877F2"/>
<path d="M35.4261 33.5156L36.5566 26H29.4844V21.1229C29.4844 19.0667 30.4723 17.0625 33.64 17.0625H36.8555V10.6641C36.8555 10.6641 33.9373 10.1562 31.1474 10.1562C25.3226 10.1562 21.5156 13.7556 21.5156 20.2719V26H15.041V33.5156H21.5156V51.684C22.8139 51.8917 24.1445 52 25.5 52C26.8555 52 28.1861 51.8917 29.4844 51.684V33.5156H35.4261Z" fill="white"/>
</g>
<defs>
<clipPath id="clip0_978_308">
<rect width="51" height="52" fill="white"/>
</clipPath>
</defs>
</svg>
