<svg width="51" height="52" viewBox="0 0 51 52" fill="none" xmlns="http://www.w3.org/2000/svg">
<g clip-path="url(#clip0_978_323)">
<path d="M51 26C51 11.6406 39.5833 0 25.5 0C11.4167 0 0 11.6406 0 26C0 40.3594 11.4167 52 25.5 52C39.5833 52 51 40.3594 51 26Z" fill="url(#paint0_linear_978_323)"/>
<path opacity="0.1" d="M44.6923 8.89485C40.9747 15.8533 35.717 23.0306 29.1474 29.7291C22.5778 36.4275 15.5384 41.778 8.72389 45.5685C8.29665 45.1899 7.88172 44.7954 7.47908 44.3849C5.04537 41.9863 3.10435 39.1176 1.76922 35.9463C0.434087 32.7749 -0.268443 29.3642 -0.297406 25.9131C-0.326369 22.4621 0.318814 19.0397 1.60052 15.8454C2.88223 12.6512 4.77482 9.74917 7.16792 7.30846C9.56102 4.86776 12.4068 2.93725 15.5392 1.62952C18.6716 0.321786 22.028 -0.337003 25.4127 -0.308435C28.7975 -0.279868 32.1427 0.435485 35.2535 1.79591C38.3642 3.15634 41.1782 5.13461 43.5314 7.61538C43.934 8.02591 44.321 8.4524 44.6923 8.89485Z" fill="white"/>
<path d="M31.5396 12.3159H19.4607C17.503 12.3159 15.6254 13.1089 14.2411 14.5203C12.8568 15.9318 12.0791 17.8461 12.0791 19.8422V32.158C12.0791 34.1541 12.8568 36.0685 14.2411 37.4799C15.6254 38.8914 17.503 39.6843 19.4607 39.6843H31.5396C33.4973 39.6843 35.3749 38.8914 36.7592 37.4799C38.1435 36.0685 38.9212 34.1541 38.9212 32.158V19.8422C38.9212 17.8461 38.1435 15.9318 36.7592 14.5203C35.3749 13.1089 33.4973 12.3159 31.5396 12.3159ZM36.5725 31.077C36.5725 32.7247 35.9306 34.3049 34.7879 35.47C33.6452 36.6351 32.0954 37.2896 30.4794 37.2896H20.5209C18.9049 37.2896 17.3551 36.6351 16.2124 35.47C15.0697 34.3049 14.4278 32.7247 14.4278 31.077V20.9233C14.4278 19.2756 15.0697 17.6954 16.2124 16.5303C17.3551 15.3652 18.9049 14.7107 20.5209 14.7107H30.4794C32.0954 14.7107 33.6452 15.3652 34.7879 16.5303C35.9306 17.6954 36.5725 19.2756 36.5725 20.9233V31.077Z" fill="white"/>
<path d="M30.3956 21.06L30.3319 20.995L30.2782 20.9403C29.0096 19.6513 27.2913 18.9279 25.5003 18.9287C24.5959 18.935 23.7015 19.1229 22.8683 19.4817C22.0351 19.8405 21.2794 20.3632 20.6444 21.0198C20.0094 21.6765 19.5075 22.4544 19.1674 23.3089C18.8273 24.1634 18.6557 25.0779 18.6623 26C18.6609 27.8715 19.3845 29.6678 20.6755 30.9982C21.3078 31.6508 22.0613 32.1684 22.892 32.5208C23.7228 32.8733 24.614 33.0534 25.5137 33.0508C26.8634 33.022 28.1756 32.5933 29.2903 31.8171C30.4051 31.0409 31.2743 29.9507 31.7918 28.6795C32.3094 27.4083 32.453 26.011 32.2051 24.6581C31.9571 23.3051 31.3284 22.0549 30.3956 21.06ZM25.5003 30.639C24.5979 30.6519 23.712 30.3908 22.9555 29.889C22.199 29.3871 21.6059 28.6672 21.2517 27.8208C20.8976 26.9743 20.7983 26.0396 20.9666 25.1355C21.1349 24.2314 21.5631 23.3988 22.1968 22.7435C22.8305 22.0882 23.641 21.6399 24.5253 21.4555C25.4095 21.2712 26.3276 21.3592 27.1626 21.7083C27.9977 22.0575 28.7121 22.6519 29.2149 23.4161C29.7177 24.1804 29.9862 25.0798 29.9863 26C29.9907 26.605 29.8782 27.205 29.6551 27.7656C29.432 28.3262 29.1027 28.8365 28.6861 29.2673C28.2695 29.6981 27.7737 30.041 27.2271 30.2764C26.6804 30.5117 26.0937 30.6349 25.5003 30.639Z" fill="white"/>
<path d="M34.368 18.6038C34.3698 18.8233 34.3291 19.0411 34.2482 19.2445C34.1674 19.448 34.0479 19.6332 33.8968 19.7895C33.7456 19.9459 33.5657 20.0703 33.3673 20.1556C33.169 20.241 32.956 20.2856 32.7407 20.287C32.5272 20.2869 32.3159 20.2436 32.1189 20.1596C31.9219 20.0756 31.7433 19.9526 31.5932 19.7978C31.3659 19.5626 31.2113 19.2646 31.1485 18.9407C31.0858 18.6168 31.1177 18.2812 31.2402 17.9756C31.3627 17.67 31.5706 17.4078 31.8379 17.2215C32.1052 17.0351 32.4203 16.9329 32.7441 16.9275C33.123 16.9274 33.49 17.063 33.7809 17.3106L33.8144 17.3449C33.8685 17.3898 33.918 17.4402 33.962 17.4954L33.9989 17.5364C34.2391 17.8381 34.3695 18.2152 34.368 18.6038Z" fill="white"/>
</g>
<defs>
<linearGradient id="paint0_linear_978_323" x1="7.46882" y1="7.61526" x2="44.2314" y2="43.6708" gradientUnits="userSpaceOnUse">
<stop stop-color="#FAE100"/>
<stop offset="0.15" stop-color="#FCB720"/>
<stop offset="0.3" stop-color="#FF7950"/>
<stop offset="0.5" stop-color="#FF1C74"/>
<stop offset="1" stop-color="#6C1CD1"/>
</linearGradient>
<clipPath id="clip0_978_323">
<rect width="51" height="52" fill="white"/>
</clipPath>
</defs>
</svg>
