<svg width="24" height="24" viewBox="0 0 24 24" fill="none" xmlns="http://www.w3.org/2000/svg">
<path d="M22.2698 4.6209C21.311 4.6209 20.5345 5.46643 20.5345 6.50657C20.5345 7.1832 20.862 7.77225 21.3553 8.10698C20.3131 9.67135 18.8424 11.488 17.3265 12.0143C15.3316 12.7074 13.4717 8.44787 12.5561 5.91647C13.2348 5.66104 13.7291 4.96384 13.7291 4.13687C13.7291 3.09673 12.9536 2.2522 11.9979 2.2522C11.0443 2.2522 10.2678 3.09668 10.2678 4.13687C10.2678 4.96384 10.7611 5.66003 11.4408 5.91647C10.5273 8.44787 8.66941 12.7074 6.67149 12.0143C5.15759 11.488 3.68384 9.67135 2.6437 8.10698C3.13494 7.7723 3.46346 7.18425 3.46346 6.50657C3.46346 5.46643 2.68591 4.6209 1.73018 4.6209C0.776501 4.6209 0 5.46643 0 6.50657C0 7.54982 0.776501 8.39431 1.73018 8.39431C1.74975 8.39431 1.76312 8.38915 1.78169 8.3871L4.1195 19.247H19.8795L22.2184 8.3871C22.2348 8.38815 22.2513 8.39431 22.2709 8.39431C23.2235 8.39431 24 7.54982 24 6.50657C23.9989 5.46643 23.2224 4.6209 22.2698 4.6209Z" fill="#F26B42"/>
<path d="M19.7991 19.6292H4.19873V21.7476H19.7991V19.6292Z" fill="#F26B42"/>
</svg>
