<svg width="51" height="52" viewBox="0 0 51 52" fill="none" xmlns="http://www.w3.org/2000/svg">
<g clip-path="url(#clip0_978_334)">
<path d="M25.5 51.9995C39.5833 51.9995 51 40.3589 51 25.9995C51 11.6401 39.5833 -0.000488281 25.5 -0.000488281C11.4167 -0.000488281 0 11.6401 0 25.9995C0 40.3589 11.4167 51.9995 25.5 51.9995Z" fill="#007AB9"/>
<path d="M40.7361 28.0918V38.811H34.6409V28.8102C34.6409 26.299 33.7609 24.5842 31.554 24.5842C29.8698 24.5842 28.8693 25.7387 28.4275 26.8566C28.267 27.2561 28.2257 27.8109 28.2257 28.3712V38.8105H22.13C22.13 38.8105 22.2118 21.8724 22.13 20.1191H28.2261V22.7678C28.2139 22.7887 28.1966 22.8091 28.1857 22.829H28.2261V22.7678C29.0362 21.497 30.4808 19.6802 33.7195 19.6802C37.7297 19.6802 40.7361 22.3516 40.7361 28.0918ZM15.7534 11.1091C13.6683 11.1091 12.3042 12.5047 12.3042 14.3382C12.3042 16.1327 13.6288 17.5686 15.6734 17.5686H15.713C17.8389 17.5686 19.1608 16.1327 19.1608 14.3382C19.1204 12.5047 17.8389 11.1091 15.7534 11.1091ZM12.6665 38.811H18.7599V20.1191H12.6665V38.811Z" fill="#F1F2F2"/>
</g>
<defs>
<clipPath id="clip0_978_334">
<rect width="51" height="52" fill="white"/>
</clipPath>
</defs>
</svg>
