<svg width="30" height="30" viewBox="0 0 30 30" fill="none" xmlns="http://www.w3.org/2000/svg">
<g clip-path="url(#clip0_926_218)">
<path d="M20.6808 7.84884L11.0125 17.5165L14.7038 1.87256H14.7045L20.6808 7.84884Z" fill="#9AD14B"/>
<path d="M26.6565 1.87256V1.87326L20.6809 7.84884L14.7046 1.87256H26.6565Z" fill="#2BA5F7"/>
<path d="M26.6565 1.87305V13.8249L20.6809 7.84862L26.6565 1.87305Z" fill="#F95428"/>
<path d="M20.6808 7.84863L26.6564 13.8249L11.0125 17.517V17.5163L20.6808 7.84863Z" fill="#F7B239"/>
<path d="M28.018 15.6977C27.8873 15.6977 27.7564 15.6478 27.6567 15.548L14.3588 2.24948C14.3532 2.24438 14.3478 2.23916 14.3425 2.23389L12.9816 0.872345C12.7821 0.672658 12.7822 0.349161 12.9818 0.14959C13.1815 -0.049922 13.505 -0.0498634 13.7046 0.149766L15.0499 1.49578C15.0554 1.50076 15.0608 1.50592 15.066 1.51119L28.3794 14.8252C28.579 15.0248 28.579 15.3484 28.3794 15.548C28.2797 15.6478 28.1488 15.6977 28.018 15.6977Z" fill="#995C0D"/>
<path d="M5.61599 30.0001C5.57205 30.0001 5.5274 29.9916 5.48433 29.9735C5.31084 29.9007 5.22916 29.7009 5.30193 29.5274C5.58875 28.8437 5.55265 28.0768 5.20273 27.4233C4.85281 26.7699 4.23459 26.3146 3.50662 26.1743L3.47158 26.1676C2.31212 25.9436 1.47095 24.9254 1.47095 23.7463C1.47095 23.47 1.51794 23.1955 1.61069 22.9305C2.01909 21.7629 3.23984 21.0757 4.44992 21.3319L13.0443 23.1527C13.1581 23.1767 13.2743 23.1889 13.3893 23.1889C14.0663 23.1889 14.6686 22.7826 14.9237 22.1539C15.1097 21.6956 15.0821 21.1827 14.8482 20.7469C14.6142 20.3112 14.2022 20.0048 13.7175 19.9065L11.4236 19.4404C10.9598 19.3464 10.5867 19.0066 10.4501 18.5535C10.3125 18.0969 10.4301 17.6228 10.7645 17.2834C10.8266 17.2175 10.9147 17.1763 11.0124 17.1763C11.2005 17.1763 11.3531 17.3285 11.3531 17.5166V17.5173C11.3531 17.6077 11.3172 17.6944 11.2533 17.7583C11.094 17.9176 11.0376 18.1414 11.1025 18.3569C11.1675 18.5724 11.3382 18.7278 11.5591 18.7725L13.8531 19.2387C14.5369 19.3774 15.1185 19.8097 15.4485 20.4247C15.7787 21.0397 15.8175 21.7633 15.5551 22.41C15.1953 23.2972 14.3451 23.8704 13.3892 23.8704C13.2271 23.8704 13.0636 23.8533 12.9033 23.8195L4.30871 21.9986C3.43285 21.8132 2.54943 22.3106 2.25388 23.1557C2.1865 23.3481 2.15234 23.5469 2.15234 23.7464C2.15234 24.5996 2.7613 25.3364 3.60025 25.4985L3.63511 25.5052C4.56605 25.6846 5.35619 26.2665 5.80338 27.1017C6.25062 27.937 6.2968 28.9172 5.93017 29.7911C5.87557 29.9215 5.74906 30.0001 5.61599 30.0001Z" fill="#2BA5F7"/>
<path d="M11.0126 18.0277C10.8818 18.0277 10.751 17.9779 10.6511 17.878C10.4516 17.6785 10.4516 17.3549 10.6511 17.1552L20.3195 7.48759L26.2795 1.52754C26.2846 1.52197 26.2898 1.51658 26.2951 1.51119L27.4632 0.343882C27.6627 0.14437 27.9863 0.144546 28.1859 0.344058C28.3855 0.543746 28.3854 0.86736 28.1857 1.06687L27.0331 2.21871C27.0282 2.22416 27.0231 2.22949 27.0178 2.23471L11.3739 17.878C11.2741 17.9779 11.1434 18.0277 11.0126 18.0277Z" fill="#995C0D"/>
</g>
<defs>
<clipPath id="clip0_926_218">
<rect width="30" height="30" fill="white"/>
</clipPath>
</defs>
</svg>
