<svg width="51" height="52" viewBox="0 0 51 52" fill="none" xmlns="http://www.w3.org/2000/svg">
<g clip-path="url(#clip0_978_339)">
<path fill-rule="evenodd" clip-rule="evenodd" d="M25.5 0C11.135 0 0 10.7287 0 25.22C0 32.7999 3.04675 39.3499 8.0084 43.874C8.42496 44.2541 8.67638 44.7866 8.69341 45.3565L8.83226 49.9813C8.87659 51.4566 10.3711 52.4165 11.6951 51.8205L16.7565 49.5424C17.1855 49.3494 17.6663 49.3136 18.1184 49.4404C20.4443 50.0926 22.9197 50.4399 25.4999 50.4399C39.8648 50.4399 50.9999 39.7112 50.9999 25.2199C50.9999 10.7286 39.8649 0 25.5 0Z" fill="url(#paint0_radial_978_339)"/>
<path fill-rule="evenodd" clip-rule="evenodd" d="M10.1871 32.5956L17.6777 20.4786C18.8693 18.5509 21.4208 18.0709 23.2085 19.4381L29.1662 23.9939C29.7128 24.4121 30.4649 24.4097 31.0093 23.9886L39.0554 17.7624C40.1294 16.9314 41.5312 18.2419 40.8125 19.4047L33.3219 31.5219C32.1303 33.4494 29.5788 33.9295 27.7911 32.5623L21.8332 28.0063C21.2867 27.5883 20.5345 27.5906 19.9903 28.0118L11.9441 34.2379C10.8701 35.0688 9.46823 33.7585 10.1871 32.5956Z" fill="white"/>
</g>
<defs>
<radialGradient id="paint0_radial_978_339" cx="0" cy="0" r="1" gradientUnits="userSpaceOnUse" gradientTransform="translate(9.82149 51.3687) scale(55.5422 56.6312)">
<stop stop-color="#0099FF"/>
<stop offset="0.6098" stop-color="#A033FF"/>
<stop offset="0.9348" stop-color="#FF5280"/>
<stop offset="1" stop-color="#FF7061"/>
</radialGradient>
<clipPath id="clip0_978_339">
<rect width="51" height="52" fill="white"/>
</clipPath>
</defs>
</svg>
