<svg width="200" height="54" viewBox="0 0 200 54" fill="none" xmlns="http://www.w3.org/2000/svg">
<path d="M18.9734 0.137451V30.5433L8.0043 0.137451H0V53.8671C2.80195 53.4683 5.60938 53.0863 8.42188 52.7199V23.5019L18.1754 51.5203C21.243 51.1644 24.3164 50.8277 27.3953 50.5109V0.137451H18.9734Z" fill="#E50914"/>
<path d="M58.8887 8.51099V0.137939H35.4941V49.7278C43.2566 49.0223 51.0547 48.4411 58.8883 47.9899V39.6907C53.8832 39.9801 48.8922 40.3223 43.916 40.7137V28.15C47.1813 28.1176 51.4805 28.018 55.2895 28.0653V19.7661C52.2465 19.7586 47.3559 19.8086 43.916 19.8528V8.51099H58.8887Z" fill="#E50914"/>
<path d="M64.2876 0.137451V8.5105H73.1024V47.316C75.9048 47.2101 78.7134 47.123 81.5243 47.0496V8.5105H90.3388V0.137451H64.2876Z" fill="#E50914"/>
<path d="M119.249 8.51099V0.137939H95.7378V46.8227L104.16 46.8208V27.661H115.576V19.3625H104.16V8.5106L119.249 8.51099Z" fill="#E50914"/>
<path d="M133.069 39.275V0.132812H124.647V47.2344C132.301 47.4977 139.924 47.884 147.514 48.3898V40.0914C142.713 39.7711 137.897 39.4996 133.069 39.275Z" fill="#E50914"/>
<path d="M184.651 14.2722L179.171 0.137451H170.06L179.851 25.3941L169.162 50.1718C172.119 50.4601 175.069 50.7679 178.014 51.0933L184.231 36.6867L190.388 52.5679C193.595 52.9804 196.794 53.4105 199.987 53.8664L200 53.8609L189.028 25.5648L200 0.137451H190.749L184.651 14.2722Z" fill="#E50914"/>
<path d="M154.458 0.137451V48.8894C157.269 49.1046 160.077 49.3355 162.88 49.5851V0.137451H154.458Z" fill="#E50914"/>
</svg>
