<svg width="42" height="42" viewBox="0 0 42 42" fill="none" xmlns="http://www.w3.org/2000/svg">
<circle cx="21" cy="21" r="21" fill="#F26B42"/>
<path d="M20.5001 34C15.813 34 12 30.2328 12 25.6022C12 23.5842 12.6996 22.2122 13.5099 20.6236C13.9596 19.7414 14.4248 18.8293 14.8544 17.6655L15.3013 16.4547C15.9602 16.6132 15.737 16.5596 16.3958 16.7181L16.2225 17.9949C16.0806 19.0383 16.2745 20.2217 16.754 21.2416C16.9573 21.6743 17.2027 22.0582 17.4752 22.3774C17.3807 20.6833 17.5574 19.0504 18.0036 17.5053C18.4713 15.8857 19.2218 14.3925 20.2343 13.0668C21.4945 11.4172 22.9418 10.3398 23.6129 10.2512L25.515 10L24.235 11.4052C23.6536 12.0433 23.3334 12.8671 23.3334 13.7247C23.3334 15.3826 24.3685 16.559 25.5668 17.9213C26.3352 18.7946 27.2059 19.7844 27.8654 21.0004C28.6289 22.4081 29 23.9133 29 25.6022C29 30.2328 25.187 34 20.5001 34Z" fill="white"/>
</svg>
