<svg width="51" height="51" viewBox="0 0 51 51" fill="none" xmlns="http://www.w3.org/2000/svg">
<g clip-path="url(#clip0_978_319)">
<path d="M25.5 0C11.4172 0 0 11.4172 0 25.5C0 39.5828 11.4172 51 25.5 51C39.5828 51 51 39.5828 51 25.5C51 11.4172 39.5828 0 25.5 0Z" fill="black"/>
<path d="M28.2897 23.1924L39.2059 10.5032H36.6192L27.1405 21.5211L19.5701 10.5032H10.8384L22.2864 27.1642L10.8384 40.4708H13.4253L23.435 28.8355L31.43 40.4708H40.1616L28.289 23.1924H28.2897ZM14.3574 12.4506H18.3308L36.6203 38.6119H32.6469L14.3574 12.4506Z" fill="white"/>
</g>
<defs>
<clipPath id="clip0_978_319">
<rect width="51" height="51" fill="white"/>
</clipPath>
</defs>
</svg>
