<svg width="116" height="116" viewBox="0 0 116 116" fill="none" xmlns="http://www.w3.org/2000/svg">
<g clip-path="url(#clip0_978_241)">
<path d="M97.875 4.07813H18.125C8.13058 4.07813 0 12.2087 0 22.2031V85.6406C0 95.635 8.13058 103.766 18.125 103.766H79.9766C82.4794 103.766 84.5078 101.737 84.5078 99.2344C84.5078 96.7316 82.4794 94.7031 79.9766 94.7031H63.287L52.8687 81.1873L85.884 39.1944L108.109 63.7588C109.366 65.1491 111.349 65.6208 113.098 64.9473C114.846 64.2729 116 62.5923 116 60.7188V22.2031C116 12.2087 107.869 4.07813 97.875 4.07813ZM106.938 48.957L89.001 29.1319C88.1054 28.1415 86.8168 27.5946 85.484 27.6433C84.1503 27.6902 82.9042 28.3221 82.0785 29.3717L47.1613 73.7833L35.3075 58.4053C34.4499 57.2929 33.1241 56.6406 31.7188 56.6406C31.7179 56.6406 31.717 56.6406 31.7161 56.6406C30.3107 56.6415 28.9841 57.2946 28.1274 58.4089L18.1551 71.3725C16.6293 73.3567 17.0002 76.2011 18.9835 77.7269C20.9677 79.2535 23.8121 78.8818 25.3387 76.8985L31.7223 68.5989L51.8448 94.7031H18.125C13.1282 94.7031 9.0625 90.6374 9.0625 85.6406V22.2031C9.0625 17.2064 13.1282 13.1406 18.125 13.1406H97.875C102.872 13.1406 106.938 17.2064 106.938 22.2031V48.957Z" fill="#F26B42" fill-opacity="0.4"/>
<path d="M31.7188 20.3906C24.2227 20.3906 18.125 26.4883 18.125 33.9844C18.125 41.4804 24.2227 47.5781 31.7188 47.5781C39.2148 47.5781 45.3125 41.4804 45.3125 33.9844C45.3125 26.4883 39.2148 20.3906 31.7188 20.3906ZM31.7188 38.5156C29.2204 38.5156 27.1875 36.4828 27.1875 33.9844C27.1875 31.486 29.2204 29.4531 31.7188 29.4531C34.2171 29.4531 36.25 31.486 36.25 33.9844C36.25 36.4828 34.2171 38.5156 31.7188 38.5156Z" fill="#F26B42" fill-opacity="0.4"/>
<path d="M106.139 72.7133C106.126 72.7 106.113 72.6859 106.1 72.6726C103.958 70.5158 101.109 69.3281 98.077 69.3281C95.0538 69.3281 92.2129 70.5087 90.0739 72.6531L81.3255 81.282C79.544 83.0387 79.5245 85.9079 81.2822 87.6894C83.0389 89.4709 85.9081 89.4913 87.6896 87.7337L93.5457 81.9581V107.391C93.5457 109.893 95.5742 111.922 98.077 111.922C100.58 111.922 102.608 109.893 102.608 107.391V82.0962L108.213 87.8859C109.102 88.8045 110.285 89.2656 111.469 89.2656C112.604 89.2656 113.741 88.8417 114.62 87.9903C116.419 86.2495 116.465 83.3812 114.724 81.5829L106.139 72.7133Z" fill="#F26B42" fill-opacity="0.4"/>
</g>
<defs>
<clipPath id="clip0_978_241">
<rect width="116" height="116" fill="white"/>
</clipPath>
</defs>
</svg>
