<svg width="32" height="32" viewBox="0 0 32 32" fill="none" xmlns="http://www.w3.org/2000/svg">
<g clip-path="url(#clip0_911_1179)">
<path d="M16.004 0H15.996C7.174 0 0 7.176 0 16C0 19.5 1.128 22.744 3.046 25.378L1.052 31.322L7.202 29.356C9.732 31.032 12.75 32 16.004 32C24.826 32 32 24.822 32 16C32 7.178 24.826 0 16.004 0Z" fill="#4CAF50"/>
<path d="M25.314 22.5939C24.928 23.6839 23.396 24.5879 22.174 24.8519C21.338 25.0299 20.246 25.1719 16.57 23.6479C11.868 21.6999 8.83998 16.9219 8.60398 16.6119C8.37798 16.3019 6.70398 14.0819 6.70398 11.7859C6.70398 9.48987 7.86998 8.37187 8.33998 7.89187C8.72598 7.49787 9.36398 7.31787 9.97598 7.31787C10.174 7.31787 10.352 7.32787 10.512 7.33587C10.982 7.35587 11.218 7.38387 11.528 8.12587C11.914 9.05587 12.854 11.3519 12.966 11.5879C13.08 11.8239 13.194 12.1439 13.034 12.4539C12.884 12.7739 12.752 12.9159 12.516 13.1879C12.28 13.4599 12.056 13.6679 11.82 13.9599C11.604 14.2139 11.36 14.4859 11.632 14.9559C11.904 15.4159 12.844 16.9499 14.228 18.1819C16.014 19.7719 17.462 20.2799 17.98 20.4959C18.366 20.6559 18.826 20.6179 19.108 20.3179C19.466 19.9319 19.908 19.2919 20.358 18.6619C20.678 18.2099 21.082 18.1539 21.506 18.3139C21.938 18.4639 24.224 19.5939 24.694 19.8279C25.164 20.0639 25.474 20.1759 25.588 20.3739C25.7 20.5719 25.7 21.5019 25.314 22.5939Z" fill="#FAFAFA"/>
</g>
<defs>
<clipPath id="clip0_911_1179">
<rect width="32" height="32" fill="white"/>
</clipPath>
</defs>
</svg>
