<svg width="30" height="30" viewBox="0 0 30 30" fill="none" xmlns="http://www.w3.org/2000/svg">
<g clip-path="url(#clip0_926_147)">
<path d="M17.1373 13.9518C17.7081 13.9518 18.1708 13.4891 18.1708 12.9183C18.1708 12.3475 17.7081 11.8848 17.1373 11.8848C16.5665 11.8848 16.1038 12.3475 16.1038 12.9183C16.1038 13.4891 16.5665 13.9518 17.1373 13.9518Z" fill="#6B8DF2"/>
<path d="M6.99654 18.7671L0.0804306 25.6827C-0.243886 26.0069 0.441778 27.2183 1.61184 28.3882C2.78195 29.5582 3.99338 30.2438 4.3177 29.9195L6.25738 27.9798L6.99654 18.7671Z" fill="#F2A7D0"/>
<path d="M8.85518 23.0039L2.60059 29.258C3.40021 29.8666 4.08576 30.1513 4.31768 29.9194L6.25736 27.9797L8.85518 23.0039Z" fill="#F294C7"/>
<path d="M9.35864 16.4053L2.02013 23.743C1.69581 24.0673 2.38148 25.2787 3.55153 26.4486C4.72165 27.6186 5.93308 28.3041 6.25739 27.9799L7.18364 27.0537L7.76782 25.8969L8.71775 25.5198L13.596 20.6421L9.35864 16.4053Z" fill="#FFCA21"/>
<path d="M12.4066 19.4526L4.54028 27.3182C5.33991 27.9269 6.02546 28.2115 6.25737 27.9797L7.18362 27.0535L7.63134 25.8868L8.71772 25.5196L13.5959 20.6419L12.4066 19.4526Z" fill="#F2BB0C"/>
<path d="M13.5442 20.6904C13.8685 20.3661 13.183 19.1549 12.0131 17.9851C10.8432 16.8152 9.63203 16.1297 9.30779 16.4539C8.98355 16.7782 9.66906 17.9894 10.8389 19.1592C12.0088 20.3291 13.22 21.0146 13.5442 20.6904Z" fill="#EB67A5"/>
<path d="M15.1086 19.6287C14.9489 19.6287 14.7946 19.5428 14.7144 19.392C14.5988 19.1745 14.6813 18.9045 14.8988 18.7888C16.8087 17.7732 20.7687 16.3439 25.8309 18.1819C26.0624 18.266 26.182 18.5218 26.0979 18.7533C26.0138 18.9848 25.7581 19.1043 25.5265 19.0203C20.7888 17.3001 17.0968 18.6303 15.3176 19.5764C15.2508 19.6118 15.1792 19.6287 15.1086 19.6287Z" fill="#B5C8FF"/>
<path d="M14.2346 16.2109C14.1204 16.2109 14.0063 16.1674 13.9192 16.0803C13.745 15.9061 13.745 15.6237 13.9192 15.4496L14.7564 14.6126C14.9304 14.4384 15.2129 14.4384 15.3871 14.6126C15.5612 14.7868 15.5612 15.0692 15.387 15.2433L14.5499 16.0803C14.4628 16.1674 14.3487 16.2109 14.2346 16.2109Z" fill="#B5C8FF"/>
<path d="M18.9282 11.5177C18.814 11.5177 18.6998 11.4741 18.6127 11.3869C18.4386 11.2127 18.4387 10.9303 18.613 10.7562L24.8023 4.57189C24.9765 4.39781 25.2589 4.39793 25.433 4.57213C25.6071 4.74639 25.607 5.02875 25.4327 5.20289L19.2434 11.3872C19.1564 11.4742 19.0422 11.5177 18.9282 11.5177Z" fill="#B5C8FF"/>
<path d="M22.4684 3.04803C23.0392 3.04803 23.5019 2.5853 23.5019 2.01449C23.5019 1.44369 23.0392 0.980957 22.4684 0.980957C21.8975 0.980957 21.4348 1.44369 21.4348 2.01449C21.4348 2.5853 21.8975 3.04803 22.4684 3.04803Z" fill="#6B8DF2"/>
<path d="M27.9256 8.54998C28.4964 8.54998 28.9592 8.08725 28.9592 7.51645C28.9592 6.94564 28.4964 6.48291 27.9256 6.48291C27.3548 6.48291 26.8921 6.94564 26.8921 7.51645C26.8921 8.08725 27.3548 8.54998 27.9256 8.54998Z" fill="#6B8DF2"/>
<path d="M18.555 22.8527C19.1258 22.8527 19.5886 22.39 19.5886 21.8192C19.5886 21.2484 19.1258 20.7856 18.555 20.7856C17.9842 20.7856 17.5215 21.2484 17.5215 21.8192C17.5215 22.39 17.9842 22.8527 18.555 22.8527Z" fill="#6B8DF2"/>
<path d="M27.7941 14.879L26.7032 14.2834L25.5931 14.8427L25.8235 13.6231L24.9475 12.7423L26.1809 12.5841L26.7496 11.4805L27.2814 12.6023L28.5089 12.801L27.6042 13.6525L27.7941 14.879Z" fill="#FFCA21"/>
<path d="M27.5793 3.96957L27.229 2.77701L26.0486 2.38754L27.0739 1.68811L27.0773 0.445801L28.0613 1.20611L29.2438 0.827832L28.8266 1.99713L29.554 3.00559L28.3122 2.96797L27.5793 3.96957Z" fill="#FFCA21"/>
<path d="M22.706 27.6002L21.615 27.0046L20.505 27.5639L20.7354 26.3443L19.8594 25.4635L21.0927 25.3053L21.6614 24.2017L22.1932 25.3235L23.4207 25.5222L22.516 26.3737L22.706 27.6002Z" fill="#FFCA21"/>
<path d="M24.3715 10.246C24.9454 10.246 24.9464 9.354 24.3715 9.354C23.7975 9.354 23.7966 10.246 24.3715 10.246Z" fill="#EB67A5"/>
<path d="M29.5692 17.1029C30.1431 17.1029 30.1441 16.2109 29.5692 16.2109C28.9953 16.2109 28.9944 17.1029 29.5692 17.1029Z" fill="#EB67A5"/>
<path d="M13.3498 0.891973C13.9237 0.891973 13.9246 0 13.3498 0C12.7758 0 12.7748 0.891973 13.3498 0.891973Z" fill="#EB67A5"/>
<path d="M27.9045 19.8402C28.4784 19.8402 28.4793 18.9482 27.9045 18.9482C27.3305 18.9482 27.3296 19.8402 27.9045 19.8402Z" fill="#EB67A5"/>
<path d="M10.8429 15.2419C10.7733 15.2419 10.7027 15.2256 10.6367 15.1911C10.4184 15.0771 10.3339 14.8076 10.4481 14.5893C11.3716 12.8224 12.6663 9.1602 10.9618 4.48413C10.8774 4.25274 10.9967 3.99675 11.2281 3.91237C11.4595 3.82794 11.7154 3.94729 11.7998 4.17862C13.6216 9.17643 12.2301 13.1053 11.2385 15.0024C11.1589 15.1548 11.0036 15.2419 10.8429 15.2419Z" fill="#B5C8FF"/>
<path d="M8.15638 12.4724C8.72828 12.4724 9.1919 12.0105 9.1919 11.4408C9.1919 10.871 8.72828 10.4092 8.15638 10.4092C7.58447 10.4092 7.12085 10.871 7.12085 11.4408C7.12085 12.0105 7.58447 12.4724 8.15638 12.4724Z" fill="#6B8DF2"/>
<path d="M26.3993 22.2306C26.2547 22.1934 26.2114 22.1297 26.0965 21.934C25.9614 21.7042 25.7573 21.3568 25.2468 21.2254C24.7365 21.094 24.3899 21.2996 24.1604 21.4355C23.9647 21.5515 23.8959 21.5864 23.751 21.5492C23.6063 21.512 23.5631 21.4483 23.4482 21.2526C23.3132 21.0228 23.1091 20.6754 22.5986 20.544C22.3597 20.4825 22.1169 20.6263 22.0554 20.8648C21.994 21.1033 22.1377 21.3464 22.3762 21.4078C22.5209 21.445 22.5642 21.5087 22.6791 21.7044C22.8141 21.9343 23.0181 22.2816 23.5287 22.413C24.0391 22.5443 24.3858 22.3389 24.6152 22.2029C24.8108 22.0869 24.8796 22.0519 25.0245 22.0892C25.1692 22.1264 25.2124 22.1901 25.3274 22.3858C25.4624 22.6157 25.6665 22.9631 26.177 23.0944C26.2143 23.104 26.2518 23.1086 26.2885 23.1086C26.4872 23.1086 26.6684 22.9749 26.7202 22.7736C26.7814 22.5351 26.6378 22.292 26.3993 22.2306Z" fill="#F2A7D0"/>
<path d="M23.0817 14.6479C23.2978 14.5298 23.3772 14.2588 23.2591 14.0426C23.1408 13.8265 22.8698 13.747 22.6538 13.8653C22.5226 13.9369 22.4473 13.92 22.2289 13.8557C21.973 13.7804 21.5863 13.6664 21.1242 13.9191C20.6616 14.172 20.5494 14.559 20.4752 14.815C20.4122 15.0328 20.386 15.105 20.2552 15.1766C20.124 15.2483 20.0487 15.2314 19.8303 15.167C19.5745 15.0916 19.1879 14.9777 18.7256 15.2304C18.5094 15.3485 18.43 15.6195 18.5481 15.8356C18.6664 16.0518 18.9374 16.1312 19.1534 16.013C19.2847 15.9414 19.36 15.9583 19.5782 16.0226C19.7156 16.0631 19.8906 16.1147 20.0949 16.1147C20.271 16.1147 20.469 16.0762 20.6831 15.9592C21.1457 15.7063 21.2579 15.3193 21.332 15.0633C21.3951 14.8455 21.4213 14.7732 21.5521 14.7017C21.6831 14.6301 21.7585 14.647 21.9769 14.7113C22.2327 14.7866 22.6195 14.9006 23.0817 14.6479Z" fill="#F2A7D0"/>
<path d="M8.72311 6.5564C8.52706 6.44167 8.46331 6.39855 8.42616 6.25464C8.38907 6.11103 8.42393 6.04253 8.53983 5.84777C8.67624 5.61849 8.88237 5.27202 8.75059 4.76173C8.61882 4.25167 8.27077 4.048 8.04044 3.91318C7.84438 3.79845 7.78057 3.75527 7.74342 3.61142C7.68178 3.373 7.43891 3.2295 7.20003 3.29115C6.96155 3.35279 6.81817 3.59607 6.87975 3.83454C7.01153 4.3446 7.35958 4.54827 7.58991 4.68304C7.78602 4.79777 7.84977 4.84089 7.88692 4.9848C7.92401 5.12841 7.88915 5.19691 7.77325 5.39167C7.63684 5.62095 7.43071 5.96742 7.56249 6.47771C7.69426 6.98777 8.04231 7.19144 8.27264 7.3262C8.46876 7.44093 8.53251 7.48411 8.56966 7.62796C8.62163 7.82906 8.80268 7.96247 9.0012 7.96247C9.03811 7.96247 9.07567 7.95784 9.11305 7.94818C9.35153 7.88654 9.49491 7.64325 9.43333 7.40478C9.30149 6.89484 8.9535 6.69117 8.72311 6.5564Z" fill="#F2A7D0"/>
<path d="M16.1247 7.35108C16.2432 7.13516 16.1642 6.86405 15.9483 6.74557C15.7323 6.62697 15.4613 6.70602 15.3427 6.92194C15.0891 7.38406 15.2034 7.77055 15.2791 8.02631C15.3433 8.24352 15.3603 8.3184 15.2888 8.44854C15.2172 8.57903 15.1447 8.60522 14.9262 8.66832C14.6697 8.74233 14.2823 8.85412 14.0288 9.3159C13.7752 9.77803 13.8895 10.1645 13.9652 10.4203C14.0294 10.6375 14.0464 10.7124 13.9749 10.8425C13.8564 11.0584 13.9353 11.3295 14.1513 11.4481C14.2194 11.4855 14.2929 11.5032 14.3655 11.5032C14.523 11.5032 14.6757 11.4195 14.7568 11.2718C15.0105 10.8096 14.8962 10.4231 14.8205 10.1673C14.7563 9.95012 14.7394 9.87524 14.8108 9.7451C14.8824 9.61461 14.9549 9.58842 15.1734 9.52532C15.4299 9.45131 15.8173 9.33951 16.0707 8.87774C16.3244 8.41555 16.2101 8.02907 16.1344 7.7733C16.0702 7.5561 16.0533 7.48121 16.1247 7.35108Z" fill="#F2A7D0"/>
<path d="M15.1101 2.21967L15.7069 3.30852L15.1465 4.41641L16.3684 4.18643L17.251 5.0607L17.4094 3.82977L18.5153 3.26223L17.3913 2.73143L17.1922 1.50635L16.339 2.40928L15.1101 2.21967Z" fill="#FFCA21"/>
<path d="M2.36426 7.29834L2.96098 8.38713L2.40059 9.49502L3.62256 9.2651L4.50516 10.1394L4.66359 8.90838L5.76943 8.34084L4.64543 7.81004L4.44633 6.58496L3.59314 7.48789L2.36426 7.29834Z" fill="#FFCA21"/>
<path d="M20.215 6.0951C20.7889 6.0951 20.7898 5.20312 20.215 5.20312C19.641 5.20312 19.6401 6.0951 20.215 6.0951Z" fill="#EB67A5"/>
<path d="M10.5443 2.51355C11.1183 2.51355 11.1192 1.62158 10.5443 1.62158C9.97042 1.62158 9.96942 2.51355 10.5443 2.51355Z" fill="#EB67A5"/>
<path d="M7.64008 21.5897L7.92057 20.3034L9.13926 19.8053L8.00254 19.141L7.90727 17.8545L6.17781 19.5859L6.17266 19.5961L5.47949 20.7154L6.78965 20.5847L7.64008 21.5897Z" fill="white"/>
<path d="M5.47949 26.0082L6.7801 26.2122L7.18363 27.0539L8.71773 25.5199L8.31789 25.1212L8.55508 23.8262L7.38297 24.4256L6.22475 23.7998L6.43258 25.0999L5.47949 26.0082Z" fill="white"/>
<g clip-path="url(#clip1_926_147)">
<path d="M19.5447 9.27907L11.8101 17.0132L14.7631 4.49805H14.7637L19.5447 9.27907Z" fill="#9AD14B"/>
<path d="M24.3252 4.49805V4.49861L19.5447 9.27907L14.7637 4.49805H24.3252Z" fill="#2BA5F7"/>
<path d="M24.3251 4.49854V14.06L19.5447 9.279L24.3251 4.49854Z" fill="#F95428"/>
<path d="M19.5447 9.2793L24.3252 14.0603L11.8101 17.014V17.0134L19.5447 9.2793Z" fill="#F7B239"/>
<path d="M25.4144 15.5582C25.3098 15.5582 25.2051 15.5183 25.1254 15.4384L14.487 4.79958C14.4826 4.7955 14.4782 4.79133 14.474 4.78711L13.3853 3.69788C13.2257 3.53813 13.2257 3.27933 13.3854 3.11967C13.5452 2.96006 13.804 2.96011 13.9636 3.11981L15.0399 4.19663C15.0443 4.20061 15.0486 4.20474 15.0528 4.20896L25.7035 14.8602C25.8632 15.0199 25.8632 15.2787 25.7035 15.4384C25.6237 15.5183 25.5191 15.5582 25.4144 15.5582Z" fill="#995C0D"/>
<path d="M7.4928 26.9998C7.45764 26.9998 7.42192 26.993 7.38747 26.9785C7.24867 26.9203 7.18333 26.7605 7.24155 26.6217C7.471 26.0747 7.44212 25.4611 7.16219 24.9384C6.88225 24.4156 6.38767 24.0514 5.80529 23.9391L5.77726 23.9338C4.8497 23.7545 4.17676 22.94 4.17676 21.9968C4.17676 21.7757 4.21435 21.5561 4.28855 21.3441C4.61527 20.4101 5.59187 19.8603 6.55993 20.0652L13.4354 21.5218C13.5265 21.5411 13.6195 21.5509 13.7115 21.5509C14.2531 21.5509 14.7349 21.2258 14.939 20.7228C15.0877 20.3562 15.0657 19.9459 14.8785 19.5972C14.6914 19.2486 14.3617 19.0036 13.974 18.9249L12.1389 18.552C11.7678 18.4768 11.4694 18.205 11.3601 17.8425C11.25 17.4772 11.3441 17.098 11.6116 16.8265C11.6613 16.7737 11.7318 16.7407 11.8099 16.7407C11.9604 16.7407 12.0825 16.8625 12.0825 17.013V17.0136C12.0825 17.0859 12.0537 17.1552 12.0026 17.2063C11.8752 17.3338 11.8301 17.5128 11.882 17.6852C11.934 17.8577 12.0706 17.9819 12.2473 18.0177L14.0824 18.3906C14.6295 18.5016 15.0948 18.8474 15.3588 19.3394C15.623 19.8314 15.654 20.4104 15.4441 20.9277C15.1562 21.6375 14.4761 22.0961 13.7114 22.0961C13.5817 22.0961 13.4509 22.0824 13.3226 22.0553L6.44697 20.5986C5.74628 20.4502 5.03954 20.8482 4.8031 21.5242C4.7492 21.6782 4.72187 21.8373 4.72187 21.9968C4.72187 22.6794 5.20904 23.2688 5.8802 23.3985L5.90809 23.4038C6.65284 23.5474 7.28495 24.0129 7.6427 24.6811C8.0005 25.3493 8.03744 26.1335 7.74414 26.8326C7.70045 26.9369 7.59925 26.9998 7.4928 26.9998Z" fill="#2BA5F7"/>
<path d="M11.81 17.422C11.7054 17.422 11.6007 17.3821 11.5208 17.3022C11.3612 17.1426 11.3612 16.8837 11.5208 16.724L19.2556 8.98987L24.0236 4.22183C24.0276 4.21738 24.0318 4.21307 24.036 4.20876L24.9705 3.27491C25.1301 3.1153 25.389 3.11544 25.5487 3.27505C25.7083 3.4348 25.7083 3.69369 25.5485 3.8533L24.6265 4.77477C24.6225 4.77913 24.6184 4.7834 24.6142 4.78757L12.0991 17.3022C12.0193 17.3821 11.9146 17.422 11.81 17.422Z" fill="#995C0D"/>
</g>
</g>
<defs>
<clipPath id="clip0_926_147">
<rect width="30" height="30" fill="white"/>
</clipPath>
<clipPath id="clip1_926_147">
<rect width="24" height="24" fill="white" transform="translate(3 3)"/>
</clipPath>
</defs>
</svg>
