<?xml version="1.0" encoding="UTF-8"?>
<!DOCTYPE svg PUBLIC "-//W3C//DTD SVG 1.1//EN" "http://www.w3.org/Graphics/SVG/1.1/DTD/svg11.dtd">
<!-- Creator: CorelDRAW 2021 (64-Bit) -->
<svg xmlns="http://www.w3.org/2000/svg" xml:space="preserve" width="2.58048in" height="1.05in" version="1.1" style="shape-rendering:geometricPrecision; text-rendering:geometricPrecision; image-rendering:optimizeQuality; fill-rule:evenodd; clip-rule:evenodd"
viewBox="0 0 1011.92 411.75"
 xmlns:xlink="http://www.w3.org/1999/xlink"
 xmlns:xodm="http://www.corel.com/coreldraw/odm/2003">
 <defs>
  <style type="text/css">
   <![CDATA[
    .fil0 {fill:#FC783F;fill-rule:nonzero}
   ]]>
  </style>
 </defs>
 <g id="Layer_x0020_1">
  <metadata id="CorelCorpID_0Corel-Layer"/>
  <g id="_2897372252064">
   <path class="fil0" d="M975.31 150.98c23.42,-11.04 36.6,-27.72 36.6,-48.18 0,-23.95 -18.03,-40.37 -45.48,-40.37 -19.11,0 -37.41,8.07 -52.21,20.72l0 -74.01 -39.29 0 0 193.77 39.29 0 0 -38.22c6.19,-0.27 12.11,-1.08 17.76,-1.88l4.31 7c12.92,26.64 37.95,33.1 62.98,33.1l12.65 0 0 -37.95 -8.07 0c-12.11,0 -22.07,-4.84 -28.53,-13.99zm-61.09 -28.8c11.84,-13.72 30.41,-23.95 44.68,-23.95 8.34,0 13.19,3.77 13.19,9.15 0,12.11 -22.61,21.26 -57.86,25.3l0 -10.5z"/>
   <path class="fil0" d="M712.92 62.44c-16.95,0 -31.22,7 -41.45,18.57l0 -15.34 -39.29 0 0 188.39 39.29 0 0 -66.47c10.23,11.57 24.49,18.57 41.45,18.57 37.95,0 66.21,-30.95 66.21,-71.86 0,-40.91 -28.26,-71.85 -66.21,-71.85zm-7.8 105.77c-19.38,0 -33.64,-14.53 -33.64,-33.91 0,-19.38 14.26,-33.91 33.64,-33.91 19.38,0 33.64,14.53 33.64,33.91 0,19.38 -14.26,33.91 -33.64,33.91z"/>
   <path class="fil0" d="M611.99 164.98c-7,0 -11.03,-4.04 -11.03,-11.03l0 -39.29c0,-31.49 -20.99,-52.21 -52.48,-52.21 -16.96,0 -31.22,6.73 -41.72,19.38l0 -72.66 -39.29 0 0 193.77 39.29 0 0 -74.55c0,-16.96 11.57,-27.99 28.53,-27.99 15.88,0 26.38,10.77 26.38,27.45l0 34.72c0,26.64 14.26,40.37 41.98,40.37l11.03 0 0 -37.95 -2.69 0z"/>
   <path class="fil0" d="M394.27 65.67l-44.95 0 -57.32 137.25 40.37 0 6.73 -16.96c12.38,12.38 30.14,20.18 50.87,20.18 35.79,0 57.06,-23.14 57.06,-56.52 0,-50.06 -48.71,-48.71 -52.75,-83.97zm-11.84 102.54c-12.65,0 -23.68,-5.65 -30.14,-14.53l18.84 -46.56c12.11,18.84 35.52,25.03 35.52,41.71 0,11.84 -9.96,19.38 -24.22,19.38z"/>
   <path class="fil0" d="M285.66 220.48c-26.73,-54.48 -14.99,-118.97 -5.56,-152.4 0.79,-2.81 1.02,-2.42 -1.9,-2.42l-31.8 0c-3.61,0 -2.97,-0.71 -3.67,2.59 -12.41,58.51 -18.01,112.95 10.87,168.8 15.87,30.71 36.43,58.48 61.16,82.68 -4.02,11.69 -20.59,39 -38.66,63.15 -4.67,6.27 -4.79,14.84 -0.28,21.23 3.44,4.88 8.99,7.63 14.75,7.63 1.78,0 3.58,-0.27 5.37,-0.81 45,-14.02 100.45,-27.99 113.23,-27 41.39,18.46 85.54,27.81 131.24,27.81 190.09,0 345.81,-159.93 297.65,-343.4 -0.86,-3.26 -0.06,-2.59 -3.67,-2.59l-31.8 0c-2.92,0 -2.75,-0.37 -1.9,2.42 48.64,160.91 -92.13,303.03 -260.29,307.48 -41.04,0 -80.65,-8.49 -117.73,-25.22 -4.56,-2.07 -17,-7.66 -89.27,11.9 14.31,-23.66 26.85,-49.32 10.92,-64.26 -23.9,-22.45 -43.64,-48.55 -58.67,-77.59z"/>
   <path class="fil0" d="M262.67 48.18c14,0 24.49,-10.23 24.49,-24.22 0,-13.73 -10.5,-23.95 -24.49,-23.95 -13.72,0 -24.22,10.23 -24.22,23.95 0,13.99 10.5,24.22 24.22,24.22z"/>
   <path class="fil0" d="M220.68 65.67l-40.37 0c2.69,14.53 -1.08,30.41 -7,51.67l-10.5 34.99 -26.37 -86.66 -40.1 0 -26.64 86.66 -25.03 -86.66 -44.67 0 48.71 137.25 40.37 0 26.64 -89.35 26.64 89.35 40.37 0 27.45 -76.97c8.88,-25.3 13.46,-44.14 10.5,-60.28z"/>
   <path class="fil0" d="M818.14 48.27c-14,0 -24.49,-10.23 -24.49,-24.22 0,-13.72 10.5,-23.95 24.49,-23.95 13.72,0 24.22,10.23 24.22,23.95 0,13.99 -10.5,24.22 -24.22,24.22z"/>
  </g>
 </g>
</svg>
